<?xml version="1.0" encoding="UTF-8" standalone="no"?>
<!-- Created with Inkscape (http://www.inkscape.org/) -->

<svg
   width="600mm"
   height="120mm"
   viewBox="0 0 600 120"
   version="1.1"
   id="svg1"
   sodipodi:docname="main.svg"
   inkscape:version="1.3 (0e150ed6c4, 2023-07-21)"
   xmlns:inkscape="http://www.inkscape.org/namespaces/inkscape"
   xmlns:sodipodi="http://sodipodi.sourceforge.net/DTD/sodipodi-0.dtd"
   xmlns="http://www.w3.org/2000/svg"
   xmlns:svg="http://www.w3.org/2000/svg">
  <sodipodi:namedview
     id="namedview1"
     pagecolor="#000000"
     bordercolor="#000000"
     borderopacity="0.14117647"
     inkscape:showpageshadow="2"
     inkscape:pageopacity="0.0"
     inkscape:pagecheckerboard="true"
     inkscape:deskcolor="#d1d1d1"
     inkscape:document-units="mm"
     inkscape:zoom="0.35355339"
     inkscape:cx="1252.9932"
     inkscape:cy="544.47222"
     inkscape:window-width="1920"
     inkscape:window-height="1057"
     inkscape:window-x="1352"
     inkscape:window-y="-8"
     inkscape:window-maximized="1"
     inkscape:current-layer="layer1"
     showgrid="false">
    <inkscape:grid
       id="grid1"
       units="mm"
       originx="0"
       originy="0"
       spacingx="1"
       spacingy="1"
       empcolor="#0099e5"
       empopacity="0.30196078"
       color="#0099e5"
       opacity="0.14901961"
       empspacing="5"
       dotted="false"
       gridanglex="30"
       gridanglez="30"
       visible="false" />
  </sodipodi:namedview>
  <defs
     id="defs1">
    <inkscape:path-effect
       effect="fillet_chamfer"
       id="path-effect9"
       is_visible="true"
       lpeversion="1"
       nodesatellites_param="F,0,0,1,0,0,0,1 @ F,0,0,1,0,26.458333,0,1"
       radius="100"
       unit="px"
       method="auto"
       mode="F"
       chamfer_steps="1"
       flexible="true"
       use_knot_distance="true"
       apply_no_radius="true"
       apply_with_radius="true"
       only_selected="false"
       hide_knots="false" />
    <inkscape:path-effect
       effect="fillet_chamfer"
       id="path-effect8"
       is_visible="true"
       lpeversion="1"
       nodesatellites_param="F,0,0,1,0,0,0,1 @ F,0,0,1,0,0,0,1"
       radius="0"
       unit="px"
       method="auto"
       mode="F"
       chamfer_steps="1"
       flexible="false"
       use_knot_distance="true"
       apply_no_radius="true"
       apply_with_radius="true"
       only_selected="false"
       hide_knots="false" />
    <inkscape:path-effect
       effect="fillet_chamfer"
       id="path-effect7"
       is_visible="true"
       lpeversion="1"
       nodesatellites_param="F,0,0,1,0,0,0,1 @ F,0,0,1,0,0,0,1"
       radius="0"
       unit="px"
       method="auto"
       mode="F"
       chamfer_steps="1"
       flexible="false"
       use_knot_distance="true"
       apply_no_radius="true"
       apply_with_radius="true"
       only_selected="false"
       hide_knots="false" />
    <inkscape:path-effect
       effect="fillet_chamfer"
       id="path-effect6"
       is_visible="true"
       lpeversion="1"
       nodesatellites_param="F,0,0,1,0,0,0,1 @ F,0,0,1,0,0,0,1"
       radius="0"
       unit="px"
       method="auto"
       mode="F"
       chamfer_steps="1"
       flexible="false"
       use_knot_distance="true"
       apply_no_radius="true"
       apply_with_radius="true"
       only_selected="false"
       hide_knots="false" />
    <inkscape:path-effect
       effect="fillet_chamfer"
       id="path-effect5"
       is_visible="true"
       lpeversion="1"
       nodesatellites_param="F,0,0,1,0,0,0,1 @ F,0,0,1,0,0,0,1"
       radius="0"
       unit="px"
       method="auto"
       mode="F"
       chamfer_steps="1"
       flexible="false"
       use_knot_distance="true"
       apply_no_radius="true"
       apply_with_radius="true"
       only_selected="false"
       hide_knots="false" />
  </defs>
  <g
     inkscape:label="Layer 1"
     inkscape:groupmode="layer"
     id="layer1">
    <circle
       style="fill:#000000;fill-opacity:0;stroke:#ffffff;stroke-width:4;stroke-dasharray:none;stroke-opacity:1"
       id="path4"
       cy="60.04023"
       cx="60.04023"
       r="13.121523"
       inkscape:label="center" />
    <path
       style="fill:#000000;fill-opacity:0;stroke:#ffffff;stroke-width:4;stroke-linecap:round;stroke-dasharray:none;stroke-opacity:1"
       id="circle1"
       sodipodi:type="arc"
       sodipodi:cx="60.04023"
       sodipodi:cy="60.04023"
       sodipodi:rx="26.032145"
       sodipodi:ry="26.032146"
       sodipodi:start="0"
       sodipodi:end="1.5707963"
       sodipodi:open="true"
       sodipodi:arc-type="arc"
       d="M 86.072374,60.04023 A 26.032145,26.032146 0 0 1 60.04023,86.072376"
       inkscape:label="er7" />
    <path
       style="fill:#000000;fill-opacity:0;stroke:#ffffff;stroke-width:4;stroke-linecap:round;stroke-dasharray:none;stroke-opacity:1"
       id="ellipse1"
       sodipodi:type="arc"
       sodipodi:cx="60.04023"
       sodipodi:cy="60.04023"
       sodipodi:rx="39.143318"
       sodipodi:ry="39.143318"
       sodipodi:start="0"
       sodipodi:end="1.5707963"
       sodipodi:open="true"
       sodipodi:arc-type="arc"
       d="M 99.183548,60.04023 A 39.143318,39.143318 0 0 1 60.04023,99.183548"
       inkscape:label="er9" />
    <path
       style="opacity:1;fill:#000000;fill-opacity:0;stroke:#ffffff;stroke-width:4;stroke-linecap:round;stroke-dasharray:none;stroke-opacity:1"
       id="ellipse2"
       sodipodi:type="arc"
       sodipodi:cx="60.04023"
       sodipodi:cy="60.04023"
       sodipodi:rx="26.032145"
       sodipodi:ry="26.032146"
       sodipodi:start="3.1415927"
       sodipodi:end="3.143338"
       sodipodi:arc-type="arc"
       d="m 34.008085,60.04023 a 26.032145,26.032146 0 0 1 4e-5,-0.04543"
       sodipodi:open="true"
       inkscape:label="ribo3" />
    <path
       style="opacity:1;fill:#000000;fill-opacity:0;stroke:#ffffff;stroke-width:4;stroke-linecap:round;stroke-dasharray:none;stroke-opacity:1"
       id="ellipse3"
       sodipodi:type="arc"
       sodipodi:cx="60.04023"
       sodipodi:cy="60.04023"
       sodipodi:rx="26.032145"
       sodipodi:ry="26.032146"
       sodipodi:start="3.9269908"
       sodipodi:end="5.1050881"
       sodipodi:arc-type="arc"
       d="m 41.632724,41.632723 a 26.032145,26.032146 0 0 1 28.369577,-5.64306"
       sodipodi:open="true"
       inkscape:label="er6" />
    <path
       style="opacity:1;fill:#000000;fill-opacity:0;stroke:#ffffff;stroke-width:4;stroke-linecap:round;stroke-dasharray:none;stroke-opacity:1"
       id="circle3"
       sodipodi:type="arc"
       sodipodi:cx="60.04023"
       sodipodi:cy="60.04023"
       sodipodi:rx="39.143318"
       sodipodi:ry="39.143318"
       sodipodi:start="3.9269908"
       sodipodi:end="5.1050881"
       sodipodi:arc-type="arc"
       d="M 32.361724,32.361725 A 39.143318,39.143318 0 0 1 75.019731,23.87652"
       sodipodi:open="true"
       inkscape:label="er4" />
    <path
       style="opacity:1;fill:#000000;stroke:#ffffff;stroke-width:4;stroke-linecap:round;stroke-dasharray:none;stroke-opacity:1"
       d="m 68.481859,21.998111 -2.87329,12.04047"
       id="path5"
       inkscape:label="er5" />
    <path
       style="opacity:1;fill:#000000;stroke:#ffffff;stroke-width:4;stroke-linecap:round;stroke-dasharray:none;stroke-opacity:1"
       d="m 80.040229,80.040231 7.38847,7.38847"
       id="path6"
       inkscape:label="er8" />
    <path
       style="opacity:1;fill:#000000;fill-opacity:0;stroke:#ffffff;stroke-width:4;stroke-linecap:round;stroke-dasharray:none;stroke-opacity:1"
       id="ellipse6"
       sodipodi:type="arc"
       sodipodi:cx="60.04023"
       sodipodi:cy="60.04023"
       sodipodi:rx="26.032145"
       sodipodi:ry="26.032146"
       sodipodi:start="2.3561945"
       sodipodi:end="2.8797933"
       sodipodi:arc-type="arc"
       d="M 41.632724,78.447737 A 26.032145,26.032146 0 0 1 34.895109,66.777844"
       sodipodi:open="true"
       inkscape:label="er1" />
    <path
       style="opacity:1;fill:#000000;stroke:#ffffff;stroke-width:4;stroke-linecap:round;stroke-dasharray:none;stroke-opacity:1"
       d="m 41.632719,78.447731 9.19273,-9.06608"
       id="path7"
       inkscape:label="er2" />
    <path
       style="opacity:1;fill:#000000;fill-opacity:0;stroke:#ffffff;stroke-width:4;stroke-linecap:round;stroke-dasharray:none;stroke-opacity:1"
       id="circle7"
       sodipodi:type="arc"
       sodipodi:cx="60.04023"
       sodipodi:cy="60.04023"
       sodipodi:rx="39.143318"
       sodipodi:ry="39.143318"
       sodipodi:start="3.4906585"
       sodipodi:end="3.4924038"
       sodipodi:arc-type="arc"
       d="m 23.257543,46.652427 a 39.143318,39.143318 0 0 1 0.02342,-0.06418"
       sodipodi:open="true"
       inkscape:label="ribo2" />
    <path
       style="opacity:1;fill:#000000;fill-opacity:0;stroke:#ffffff;stroke-width:4;stroke-linecap:round;stroke-dasharray:none;stroke-opacity:1"
       id="path8"
       sodipodi:type="arc"
       sodipodi:cx="60.04023"
       sodipodi:cy="60.04023"
       sodipodi:rx="39.143318"
       sodipodi:ry="39.143318"
       sodipodi:start="5.5850536"
       sodipodi:end="5.5867989"
       sodipodi:arc-type="arc"
       d="m 90.025751,34.87939 a 39.143318,39.143318 0 0 1 0.04387,0.05237"
       sodipodi:open="true"
       inkscape:label="ribo1" />
    <circle
       style="opacity:1;fill:none;stroke:#ffffff;stroke-width:4;stroke-linecap:round;stroke-dasharray:none;stroke-opacity:1"
       id="path9"
       cx="60.04023"
       cy="60.04023"
       r="52.54023"
       inkscape:label="outline" />
    <path
       style="opacity:1;fill:#000000;fill-opacity:0;stroke:#ffffff;stroke-width:4;stroke-linecap:round;stroke-dasharray:none;stroke-opacity:1"
       id="path10"
       sodipodi:type="arc"
       sodipodi:cx="60.04023"
       sodipodi:cy="60.04023"
       sodipodi:rx="39.143318"
       sodipodi:ry="39.143318"
       sodipodi:start="2.3279384"
       sodipodi:end="2.9163537"
       sodipodi:arc-type="arc"
       d="M 33.154755,88.489669 A 39.143318,39.143318 0 0 1 21.885642,68.782471"
       sodipodi:open="true"
       inkscape:label="er3" />
    <path
       d="M 190.43064,96.882797 H 178.36568 L 142.06496,41.95547 V 96.882797 H 130 V 23.223029 h 12.06496 l 36.30072,54.821494 V 23.223029 h 12.06496 z m 27.83415,-73.553935 v 46.884019 q 0,8.360807 4.33915,12.594127 4.44499,4.23332 12.27663,4.23332 7.93748,0 12.27663,-4.23332 4.44499,-4.23332 4.44499,-12.594127 V 23.328862 h 12.06496 v 46.672353 q 0,8.995805 -3.91582,15.239952 -3.91582,6.244147 -10.47747,9.313304 -6.56165,3.069157 -14.49912,3.069157 -7.93748,0 -14.49912,-3.069157 -6.45582,-3.069157 -10.2658,-9.313304 -3.80999,-6.244147 -3.80999,-15.239952 V 23.328862 Z m 57.04404,36.618218 q 0,-10.794966 4.97416,-19.367439 5.07998,-8.572473 13.65245,-13.334958 8.67831,-4.868318 18.94411,-4.868318 11.74746,0 20.8491,5.820815 9.20747,5.714982 13.33496,16.298282 h -14.49912 q -2.85749,-5.820815 -7.93748,-8.678306 -5.07998,-2.857491 -11.74746,-2.857491 -7.30248,0 -13.01746,3.280823 -5.71498,3.280823 -8.9958,9.419137 -3.17499,6.138314 -3.17499,14.287455 0,8.149141 3.17499,14.287455 3.28082,6.138314 8.9958,9.52497 5.71498,3.280823 13.01746,3.280823 6.66748,0 11.74746,-2.857491 5.07999,-2.857491 7.93748,-8.678306 h 14.49912 q -4.12749,10.5833 -13.33496,16.298282 -9.10164,5.714982 -20.8491,5.714982 -10.37163,0 -18.94411,-4.762485 -8.57247,-4.868318 -13.65245,-13.440791 -4.97416,-8.572473 -4.97416,-19.367439 z m 97.8956,27.199081 h 24.87075 v 9.736636 H 361.13946 V 23.328862 h 12.06497 z M 420.19432,33.065498 V 54.65543 h 25.39992 v 9.842469 h -25.39992 v 22.542429 h 28.57491 v 9.842469 H 408.12936 V 23.223029 h 40.63987 v 9.842469 z M 475.545,23.328862 v 46.884019 q 0,8.360807 4.33916,12.594127 4.44498,4.23332 12.27662,4.23332 7.93748,0 12.27663,-4.23332 4.44499,-4.23332 4.44499,-12.594127 V 23.328862 h 12.06496 v 46.672353 q 0,8.995805 -3.91582,15.239952 -3.91582,6.244147 -10.47747,9.313304 -6.56164,3.069157 -14.49912,3.069157 -7.93747,0 -14.49912,-3.069157 -6.45581,-3.069157 -10.2658,-9.313304 -3.80999,-6.244147 -3.80999,-15.239952 V 23.328862 Z m 85.30144,74.294766 q -7.40831,0 -13.33496,-2.539992 -5.92664,-2.645825 -9.3133,-7.40831 -3.38666,-4.762485 -3.38666,-11.112465 h 12.91163 q 0.42333,4.762485 3.70416,7.831642 3.38665,3.069157 9.41913,3.069157 6.24415,0 9.73664,-2.963324 3.49249,-3.069157 3.49249,-7.831642 0,-3.704155 -2.2225,-6.032481 -2.11666,-2.328326 -5.39748,-3.598322 -3.17499,-1.269996 -8.88997,-2.751658 -7.19664,-1.904994 -11.74746,-3.809988 -4.44499,-2.010827 -7.61998,-6.138314 -3.17499,-4.127487 -3.17499,-11.006632 0,-6.34998 3.17499,-11.112465 3.17499,-4.762485 8.88997,-7.302477 5.71498,-2.539992 13.22913,-2.539992 10.68913,0 17.46244,5.397483 6.87915,5.29165 7.61998,14.604954 h -13.33496 q -0.3175,-4.021654 -3.80999,-6.879145 -3.49249,-2.857491 -9.20747,-2.857491 -5.18582,0 -8.46664,2.645825 -3.28082,2.645825 -3.28082,7.619976 0,3.386656 2.01083,5.609149 2.11666,2.11666 5.29165,3.386656 3.17499,1.269996 8.6783,2.751658 7.30248,2.010827 11.8533,4.021654 4.65665,2.010827 7.83164,6.244147 3.28082,4.127487 3.28082,11.112465 0,5.609149 -3.06915,10.5833 -2.96333,4.974151 -8.78414,8.043308 -5.71499,2.963324 -13.54663,2.963324 z"
       id="text2"
       style="font-weight:500;font-size:105.833px;font-family:Poppins;-inkscape-font-specification:'Poppins Medium';fill:#ffffff;stroke-width:4;stroke-linecap:round"
       aria-label="NUCLEUS" />
  </g>
</svg>
