<?xml version="1.0" encoding="UTF-8" standalone="no"?>
<!-- Created with Inkscape (http://www.inkscape.org/) -->

<svg
   width="970mm"
   height="120mm"
   viewBox="0 0 970 120"
   version="1.1"
   id="svg1"
   sodipodi:docname="facet.svg"
   inkscape:version="1.3 (0e150ed6c4, 2023-07-21)"
   xmlns:inkscape="http://www.inkscape.org/namespaces/inkscape"
   xmlns:sodipodi="http://sodipodi.sourceforge.net/DTD/sodipodi-0.dtd"
   xmlns="http://www.w3.org/2000/svg"
   xmlns:svg="http://www.w3.org/2000/svg">
  <sodipodi:namedview
     id="namedview1"
     pagecolor="#000000"
     bordercolor="#000000"
     borderopacity="0.14117647"
     inkscape:showpageshadow="2"
     inkscape:pageopacity="0.0"
     inkscape:pagecheckerboard="true"
     inkscape:deskcolor="#d1d1d1"
     inkscape:document-units="mm"
     inkscape:zoom="0.17092151"
     inkscape:cx="1983.3665"
     inkscape:cy="-8.775958"
     inkscape:window-width="1920"
     inkscape:window-height="1057"
     inkscape:window-x="1352"
     inkscape:window-y="-8"
     inkscape:window-maximized="1"
     inkscape:current-layer="layer1"
     showgrid="false">
    <inkscape:grid
       id="grid1"
       units="mm"
       originx="0"
       originy="0"
       spacingx="1"
       spacingy="1"
       empcolor="#0099e5"
       empopacity="0.30196078"
       color="#0099e5"
       opacity="0.14901961"
       empspacing="5"
       dotted="false"
       gridanglex="30"
       gridanglez="30"
       visible="false" />
  </sodipodi:namedview>
  <defs
     id="defs1">
    <inkscape:path-effect
       effect="bspline"
       id="path-effect26"
       is_visible="true"
       lpeversion="1.3"
       weight="33.333333"
       steps="2"
       helper_size="0"
       apply_no_weight="true"
       apply_with_weight="true"
       only_selected="false"
       uniform="false" />
    <inkscape:path-effect
       effect="bspline"
       id="path-effect24"
       is_visible="true"
       lpeversion="1.3"
       weight="33.333333"
       steps="2"
       helper_size="0"
       apply_no_weight="true"
       apply_with_weight="true"
       only_selected="false"
       uniform="false" />
    <inkscape:path-effect
       effect="bspline"
       id="path-effect19"
       is_visible="true"
       lpeversion="1.3"
       weight="33.333333"
       steps="2"
       helper_size="0"
       apply_no_weight="true"
       apply_with_weight="true"
       only_selected="false"
       uniform="false" />
    <inkscape:path-effect
       effect="bspline"
       id="path-effect18"
       is_visible="true"
       lpeversion="1.3"
       weight="33.333333"
       steps="2"
       helper_size="0"
       apply_no_weight="true"
       apply_with_weight="true"
       only_selected="false"
       uniform="false" />
    <inkscape:path-effect
       effect="bspline"
       id="path-effect16"
       is_visible="true"
       lpeversion="1.3"
       weight="33.333333"
       steps="2"
       helper_size="0"
       apply_no_weight="true"
       apply_with_weight="true"
       only_selected="false"
       uniform="false" />
    <inkscape:path-effect
       effect="bspline"
       id="path-effect11"
       is_visible="true"
       lpeversion="1.3"
       weight="33.333333"
       steps="2"
       helper_size="0"
       apply_no_weight="true"
       apply_with_weight="true"
       only_selected="false"
       uniform="false" />
    <inkscape:path-effect
       effect="bspline"
       id="path-effect4"
       is_visible="true"
       lpeversion="1.3"
       weight="33.333333"
       steps="2"
       helper_size="0"
       apply_no_weight="true"
       apply_with_weight="true"
       only_selected="false"
       uniform="false" />
    <inkscape:path-effect
       effect="bspline"
       id="path-effect3"
       is_visible="true"
       lpeversion="1.3"
       weight="33.333333"
       steps="2"
       helper_size="0"
       apply_no_weight="true"
       apply_with_weight="true"
       only_selected="false"
       uniform="false" />
    <inkscape:path-effect
       effect="bspline"
       id="path-effect2"
       is_visible="true"
       lpeversion="1.3"
       weight="33.333333"
       steps="2"
       helper_size="0"
       apply_no_weight="true"
       apply_with_weight="true"
       only_selected="false"
       uniform="false" />
    <inkscape:path-effect
       effect="bspline"
       id="path-effect1"
       is_visible="true"
       lpeversion="1.3"
       weight="33.333333"
       steps="2"
       helper_size="0"
       apply_no_weight="true"
       apply_with_weight="true"
       only_selected="false"
       uniform="false" />
    <inkscape:path-effect
       effect="fillet_chamfer"
       id="path-effect9"
       is_visible="true"
       lpeversion="1"
       nodesatellites_param="F,0,0,1,0,0,0,1 @ F,0,0,1,0,26.458333,0,1"
       radius="100"
       unit="px"
       method="auto"
       mode="F"
       chamfer_steps="1"
       flexible="true"
       use_knot_distance="true"
       apply_no_radius="true"
       apply_with_radius="true"
       only_selected="false"
       hide_knots="false" />
    <inkscape:path-effect
       effect="fillet_chamfer"
       id="path-effect8"
       is_visible="true"
       lpeversion="1"
       nodesatellites_param="F,0,0,1,0,0,0,1 @ F,0,0,1,0,0,0,1"
       radius="0"
       unit="px"
       method="auto"
       mode="F"
       chamfer_steps="1"
       flexible="false"
       use_knot_distance="true"
       apply_no_radius="true"
       apply_with_radius="true"
       only_selected="false"
       hide_knots="false" />
    <inkscape:path-effect
       effect="fillet_chamfer"
       id="path-effect7"
       is_visible="true"
       lpeversion="1"
       nodesatellites_param="F,0,0,1,0,0,0,1 @ F,0,0,1,0,0,0,1"
       radius="0"
       unit="px"
       method="auto"
       mode="F"
       chamfer_steps="1"
       flexible="false"
       use_knot_distance="true"
       apply_no_radius="true"
       apply_with_radius="true"
       only_selected="false"
       hide_knots="false" />
    <inkscape:path-effect
       effect="fillet_chamfer"
       id="path-effect6"
       is_visible="true"
       lpeversion="1"
       nodesatellites_param="F,0,0,1,0,0,0,1 @ F,0,0,1,0,0,0,1"
       radius="0"
       unit="px"
       method="auto"
       mode="F"
       chamfer_steps="1"
       flexible="false"
       use_knot_distance="true"
       apply_no_radius="true"
       apply_with_radius="true"
       only_selected="false"
       hide_knots="false" />
    <inkscape:path-effect
       effect="fillet_chamfer"
       id="path-effect5"
       is_visible="true"
       lpeversion="1"
       nodesatellites_param="F,0,0,1,0,0,0,1 @ F,0,0,1,0,0,0,1"
       radius="0"
       unit="px"
       method="auto"
       mode="F"
       chamfer_steps="1"
       flexible="false"
       use_knot_distance="true"
       apply_no_radius="true"
       apply_with_radius="true"
       only_selected="false"
       hide_knots="false" />
  </defs>
  <g
     inkscape:label="Layer 1"
     inkscape:groupmode="layer"
     id="layer1">
    <circle
       style="fill:#0d1117;fill-opacity:1;stroke:none;stroke-width:4;stroke-linecap:round;stroke-dasharray:none;stroke-opacity:1"
       id="circle2"
       cx="60"
       cy="60"
       r="52.54023"
       inkscape:label="background" />
    <circle
       style="opacity:1;fill:none;stroke:#ffffff;stroke-width:4;stroke-linecap:round;stroke-dasharray:none;stroke-opacity:1"
       id="path9"
       cx="60.04023"
       cy="60.04023"
       r="52.54023"
       inkscape:label="outline" />
    <path
       style="fill:none;stroke:#ffffff;stroke-width:4;stroke-linecap:round"
       d="m 50,20 c 0,8.333332 0,16.666667 4.16675,20.833333 4.166749,4.166666 12.499915,4.166666 16.666582,9.166766 C 75,55.000199 75,64.999999 70.833249,70 66.666498,75 58.333332,75 54.166666,79.16675 50,83.333499 50,91.666665 50,99.999997"
       id="path24"
       inkscape:path-effect="#path-effect24"
       inkscape:original-d="m 50,20 c 0,8.333332 0,16.666667 0,24.999999 8.333499,0 16.666665,0 25,0 0,10.0002 0,20 0,30.000001 -8.333502,0 -16.666668,0 -25,0 0,8.333499 0,16.666665 0,24.999997"
       transform="translate(-1.9791551)"
       inkscape:label="left" />
    <path
       style="fill:none;stroke:#ffffff;stroke-width:4;stroke-linecap:round"
       d="m 50,20 c 0,8.333332 0,16.666667 4.16675,20.833333 4.166749,4.166666 12.499915,4.166666 16.666582,9.166766 C 75,55.000199 75,64.999999 70.833249,70 66.666498,75 58.333332,75 54.166666,79.16675 50,83.333499 50,91.666665 50,99.999997"
       id="path25"
       inkscape:path-effect="#path-effect26"
       inkscape:original-d="m 50,20 c 0,8.333332 0,16.666667 0,24.999999 8.333499,0 16.666665,0 25,0 0,10.0002 0,20 0,30.000001 -8.333502,0 -16.666668,0 -25,0 0,8.333499 0,16.666665 0,24.999997"
       transform="matrix(-1,1.0395112e-8,0,1,121.97916,9.802444e-7)"
       inkscape:label="right" />
    <path
       style="fill:none;stroke:#ffffff;stroke-width:4;stroke-linecap:round"
       d="M 50,54.999998 H 69.999999"
       id="path27"
       inkscape:label="rung4" />
    <path
       style="fill:none;stroke:#ffffff;stroke-width:4;stroke-linecap:round"
       d="M 50,64.999999 H 69.999999"
       id="path28"
       inkscape:label="rung3" />
    <path
       style="fill:none;stroke:#ffffff;stroke-width:4;stroke-linecap:round"
       d="M 50,34.999998 H 69.999999"
       id="path30"
       inkscape:label="rung5" />
    <path
       style="fill:none;stroke:#ffffff;stroke-width:4;stroke-linecap:round"
       d="M 50,24.999999 H 69.999999"
       id="path31"
       inkscape:label="rung6" />
    <path
       style="fill:none;stroke:#ffffff;stroke-width:4;stroke-linecap:round"
       d="M 50,84.999998 H 69.999999"
       id="path32"
       inkscape:label="rung2" />
    <path
       style="fill:none;stroke:#ffffff;stroke-width:4;stroke-linecap:round"
       d="M 50,94.999999 H 69.999999"
       id="path33"
       inkscape:label="rung1" />
    <path
       d="M 190.43064,96.882797 H 178.36568 L 142.06496,41.95547 V 96.882797 H 130 V 23.223029 h 12.06496 l 36.30072,54.821494 V 23.223029 h 12.06496 z m 27.83415,-73.553935 v 46.884019 q 0,8.360807 4.33915,12.594127 4.44499,4.23332 12.27663,4.23332 7.93748,0 12.27663,-4.23332 4.44499,-4.23332 4.44499,-12.594127 V 23.328862 h 12.06496 v 46.672353 q 0,8.995805 -3.91582,15.239952 -3.91582,6.244147 -10.47747,9.313304 -6.56165,3.069157 -14.49912,3.069157 -7.93748,0 -14.49912,-3.069157 -6.45582,-3.069157 -10.2658,-9.313304 -3.80999,-6.244147 -3.80999,-15.239952 V 23.328862 Z m 57.04404,36.618218 q 0,-10.794966 4.97416,-19.367439 5.07998,-8.572473 13.65245,-13.334958 8.67831,-4.868318 18.94411,-4.868318 11.74746,0 20.8491,5.820815 9.20747,5.714982 13.33496,16.298282 h -14.49912 q -2.85749,-5.820815 -7.93748,-8.678306 -5.07998,-2.857491 -11.74746,-2.857491 -7.30248,0 -13.01746,3.280823 -5.71498,3.280823 -8.9958,9.419137 -3.17499,6.138314 -3.17499,14.287455 0,8.149141 3.17499,14.287455 3.28082,6.138314 8.9958,9.52497 5.71498,3.280823 13.01746,3.280823 6.66748,0 11.74746,-2.857491 5.07999,-2.857491 7.93748,-8.678306 h 14.49912 q -4.12749,10.5833 -13.33496,16.298282 -9.10164,5.714982 -20.8491,5.714982 -10.37163,0 -18.94411,-4.762485 -8.57247,-4.868318 -13.65245,-13.440791 -4.97416,-8.572473 -4.97416,-19.367439 z m 97.8956,27.199081 h 24.87075 v 9.736636 H 361.13946 V 23.328862 h 12.06497 z M 420.19432,33.065498 V 54.65543 h 25.39992 v 9.842469 h -25.39992 v 22.542429 h 28.57491 v 9.842469 H 408.12936 V 23.223029 h 40.63987 v 9.842469 z M 475.545,23.328862 v 46.884019 q 0,8.360807 4.33916,12.594127 4.44498,4.23332 12.27662,4.23332 7.93748,0 12.27663,-4.23332 4.44499,-4.23332 4.44499,-12.594127 V 23.328862 h 12.06496 v 46.672353 q 0,8.995805 -3.91582,15.239952 -3.91582,6.244147 -10.47747,9.313304 -6.56164,3.069157 -14.49912,3.069157 -7.93747,0 -14.49912,-3.069157 -6.45581,-3.069157 -10.2658,-9.313304 -3.80999,-6.244147 -3.80999,-15.239952 V 23.328862 Z m 85.30144,74.294766 q -7.40831,0 -13.33496,-2.539992 -5.92664,-2.645825 -9.3133,-7.40831 -3.38666,-4.762485 -3.38666,-11.112465 h 12.91163 q 0.42333,4.762485 3.70416,7.831642 3.38665,3.069157 9.41913,3.069157 6.24415,0 9.73664,-2.963324 3.49249,-3.069157 3.49249,-7.831642 0,-3.704155 -2.2225,-6.032481 -2.11666,-2.328326 -5.39748,-3.598322 -3.17499,-1.269996 -8.88997,-2.751658 -7.19664,-1.904994 -11.74746,-3.809988 -4.44499,-2.010827 -7.61998,-6.138314 -3.17499,-4.127487 -3.17499,-11.006632 0,-6.34998 3.17499,-11.112465 3.17499,-4.762485 8.88997,-7.302477 5.71498,-2.539992 13.22913,-2.539992 10.68913,0 17.46244,5.397483 6.87915,5.29165 7.61998,14.604954 h -13.33496 q -0.3175,-4.021654 -3.80999,-6.879145 -3.49249,-2.857491 -9.20747,-2.857491 -5.18582,0 -8.46664,2.645825 -3.28082,2.645825 -3.28082,7.619976 0,3.386656 2.01083,5.609149 2.11666,2.11666 5.29165,3.386656 3.17499,1.269996 8.6783,2.751658 7.30248,2.010827 11.8533,4.021654 4.65665,2.010827 7.83164,6.244147 3.28082,4.127487 3.28082,11.112465 0,5.609149 -3.06915,10.5833 -2.96333,4.974151 -8.78414,8.043308 -5.71499,2.963324 -13.54663,2.963324 z"
       id="text2"
       style="font-weight:500;font-size:105.833px;font-family:Poppins;-inkscape-font-specification:'Poppins Medium';fill:#ffffff;stroke-width:4;stroke-linecap:round"
       aria-label="NUCLEUS" />
    <path
       d="m 664.74135,23.064283 v 6.138314 H 632.14479 V 56.82501 h 27.51658 v 6.138314 H 632.14479 V 97.04155 h -7.40831 V 23.064283 Z m 55.03316,56.408989 h -33.65489 l -6.45581,17.568278 h -7.83165 l 26.98742,-73.02477 h 8.36081 l 26.88158,73.02477 h -7.83164 z M 717.55202,73.334958 702.94707,33.330084 688.34211,73.334958 Z M 742.52865,60 q 0,-10.900799 4.76249,-19.473272 4.76248,-8.678306 13.01746,-13.440791 8.25497,-4.868318 18.41494,-4.868318 12.38246,0 21.1666,5.926648 8.88997,5.820815 12.91163,16.509948 h -8.67831 q -3.17499,-7.514143 -9.73664,-11.747463 -6.45581,-4.23332 -15.66328,-4.23332 -8.14914,0 -14.71079,3.809988 -6.45581,3.809988 -10.15997,11.006632 -3.70415,7.090811 -3.70415,16.509948 0,9.419137 3.70415,16.509948 3.70416,7.090811 10.15997,10.900799 6.56165,3.809988 14.71079,3.809988 9.20747,0 15.66328,-4.127487 6.56165,-4.23332 9.73664,-11.64163 h 8.67831 q -4.02166,10.5833 -12.91163,16.404115 -8.88997,5.820815 -21.1666,5.820815 -10.15997,0 -18.41494,-4.762485 Q 752.05362,88.045745 747.29114,79.473272 742.52865,70.900799 742.52865,60 Z m 92.3922,-30.903236 v 27.622413 h 28.04574 v 6.138314 h -28.04574 v 28.045745 h 31.22073 v 6.138314 h -38.62904 v -74.0831 h 38.62904 v 6.138314 z m 89.11142,-6.032481 v 6.138314 h -20.5316 V 97.04155 h -7.40831 V 29.202597 h -20.63743 v -6.138314 z"
       id="text3"
       style="font-weight:300;font-size:105.833px;font-family:Poppins;-inkscape-font-specification:'Poppins Light';fill:#ffffff;stroke-width:4;stroke-linecap:round"
       aria-label="FACET" />
  </g>
</svg>
