<?xml version="1.0" encoding="UTF-8" standalone="no"?>
<!-- Created with Inkscape (http://www.inkscape.org/) -->

<svg
   width="1025mm"
   height="120mm"
   viewBox="0 0 1025 120"
   version="1.1"
   id="svg1"
   sodipodi:docname="config.svg"
   inkscape:version="1.3 (0e150ed6c4, 2023-07-21)"
   xmlns:inkscape="http://www.inkscape.org/namespaces/inkscape"
   xmlns:sodipodi="http://sodipodi.sourceforge.net/DTD/sodipodi-0.dtd"
   xmlns="http://www.w3.org/2000/svg"
   xmlns:svg="http://www.w3.org/2000/svg">
  <sodipodi:namedview
     id="namedview1"
     pagecolor="#000000"
     bordercolor="#000000"
     borderopacity="0.14117647"
     inkscape:showpageshadow="2"
     inkscape:pageopacity="0.0"
     inkscape:pagecheckerboard="true"
     inkscape:deskcolor="#d1d1d1"
     inkscape:document-units="mm"
     inkscape:zoom="0.24171952"
     inkscape:cx="2147.1166"
     inkscape:cy="-130.31633"
     inkscape:window-width="1920"
     inkscape:window-height="1057"
     inkscape:window-x="1352"
     inkscape:window-y="-8"
     inkscape:window-maximized="1"
     inkscape:current-layer="layer1"
     showgrid="false">
    <inkscape:grid
       id="grid1"
       units="mm"
       originx="0"
       originy="0"
       spacingx="1"
       spacingy="1"
       empcolor="#0099e5"
       empopacity="0.30196078"
       color="#0099e5"
       opacity="0.14901961"
       empspacing="5"
       dotted="false"
       gridanglex="30"
       gridanglez="30"
       visible="false" />
  </sodipodi:namedview>
  <defs
     id="defs1">
    <inkscape:path-effect
       effect="bspline"
       id="path-effect26"
       is_visible="true"
       lpeversion="1.3"
       weight="33.333333"
       steps="2"
       helper_size="0"
       apply_no_weight="true"
       apply_with_weight="true"
       only_selected="false"
       uniform="false" />
    <inkscape:path-effect
       effect="bspline"
       id="path-effect24"
       is_visible="true"
       lpeversion="1.3"
       weight="33.333333"
       steps="2"
       helper_size="0"
       apply_no_weight="true"
       apply_with_weight="true"
       only_selected="false"
       uniform="false" />
    <inkscape:path-effect
       effect="bspline"
       id="path-effect19"
       is_visible="true"
       lpeversion="1.3"
       weight="33.333333"
       steps="2"
       helper_size="0"
       apply_no_weight="true"
       apply_with_weight="true"
       only_selected="false"
       uniform="false" />
    <inkscape:path-effect
       effect="bspline"
       id="path-effect18"
       is_visible="true"
       lpeversion="1.3"
       weight="33.333333"
       steps="2"
       helper_size="0"
       apply_no_weight="true"
       apply_with_weight="true"
       only_selected="false"
       uniform="false" />
    <inkscape:path-effect
       effect="bspline"
       id="path-effect16"
       is_visible="true"
       lpeversion="1.3"
       weight="33.333333"
       steps="2"
       helper_size="0"
       apply_no_weight="true"
       apply_with_weight="true"
       only_selected="false"
       uniform="false" />
    <inkscape:path-effect
       effect="bspline"
       id="path-effect11"
       is_visible="true"
       lpeversion="1.3"
       weight="33.333333"
       steps="2"
       helper_size="0"
       apply_no_weight="true"
       apply_with_weight="true"
       only_selected="false"
       uniform="false" />
    <inkscape:path-effect
       effect="bspline"
       id="path-effect4"
       is_visible="true"
       lpeversion="1.3"
       weight="33.333333"
       steps="2"
       helper_size="0"
       apply_no_weight="true"
       apply_with_weight="true"
       only_selected="false"
       uniform="false" />
    <inkscape:path-effect
       effect="bspline"
       id="path-effect3"
       is_visible="true"
       lpeversion="1.3"
       weight="33.333333"
       steps="2"
       helper_size="0"
       apply_no_weight="true"
       apply_with_weight="true"
       only_selected="false"
       uniform="false" />
    <inkscape:path-effect
       effect="bspline"
       id="path-effect2"
       is_visible="true"
       lpeversion="1.3"
       weight="33.333333"
       steps="2"
       helper_size="0"
       apply_no_weight="true"
       apply_with_weight="true"
       only_selected="false"
       uniform="false" />
    <inkscape:path-effect
       effect="bspline"
       id="path-effect1"
       is_visible="true"
       lpeversion="1.3"
       weight="33.333333"
       steps="2"
       helper_size="0"
       apply_no_weight="true"
       apply_with_weight="true"
       only_selected="false"
       uniform="false" />
    <inkscape:path-effect
       effect="fillet_chamfer"
       id="path-effect9"
       is_visible="true"
       lpeversion="1"
       nodesatellites_param="F,0,0,1,0,0,0,1 @ F,0,0,1,0,26.458333,0,1"
       radius="100"
       unit="px"
       method="auto"
       mode="F"
       chamfer_steps="1"
       flexible="true"
       use_knot_distance="true"
       apply_no_radius="true"
       apply_with_radius="true"
       only_selected="false"
       hide_knots="false" />
    <inkscape:path-effect
       effect="fillet_chamfer"
       id="path-effect8"
       is_visible="true"
       lpeversion="1"
       nodesatellites_param="F,0,0,1,0,0,0,1 @ F,0,0,1,0,0,0,1"
       radius="0"
       unit="px"
       method="auto"
       mode="F"
       chamfer_steps="1"
       flexible="false"
       use_knot_distance="true"
       apply_no_radius="true"
       apply_with_radius="true"
       only_selected="false"
       hide_knots="false" />
    <inkscape:path-effect
       effect="fillet_chamfer"
       id="path-effect7"
       is_visible="true"
       lpeversion="1"
       nodesatellites_param="F,0,0,1,0,0,0,1 @ F,0,0,1,0,0,0,1"
       radius="0"
       unit="px"
       method="auto"
       mode="F"
       chamfer_steps="1"
       flexible="false"
       use_knot_distance="true"
       apply_no_radius="true"
       apply_with_radius="true"
       only_selected="false"
       hide_knots="false" />
    <inkscape:path-effect
       effect="fillet_chamfer"
       id="path-effect6"
       is_visible="true"
       lpeversion="1"
       nodesatellites_param="F,0,0,1,0,0,0,1 @ F,0,0,1,0,0,0,1"
       radius="0"
       unit="px"
       method="auto"
       mode="F"
       chamfer_steps="1"
       flexible="false"
       use_knot_distance="true"
       apply_no_radius="true"
       apply_with_radius="true"
       only_selected="false"
       hide_knots="false" />
    <inkscape:path-effect
       effect="fillet_chamfer"
       id="path-effect5"
       is_visible="true"
       lpeversion="1"
       nodesatellites_param="F,0,0,1,0,0,0,1 @ F,0,0,1,0,0,0,1"
       radius="0"
       unit="px"
       method="auto"
       mode="F"
       chamfer_steps="1"
       flexible="false"
       use_knot_distance="true"
       apply_no_radius="true"
       apply_with_radius="true"
       only_selected="false"
       hide_knots="false" />
  </defs>
  <g
     inkscape:label="Layer 1"
     inkscape:groupmode="layer"
     id="layer1">
    <path
       id="circle37"
       style="fill:#ffffff;fill-opacity:1;stroke:none;stroke-width:17.7874;stroke-linecap:round;stroke-opacity:1"
       d="m 90.85357,40.524387 -6.214814,0.349848 a 31.207979,31.207979 0 0 0 -5.793207,-5.675499 l 0.283038,-6.168378 A 36.50586,36.50586 0 0 0 67.999019,24.440885 L 63.826726,29.1106 a 31.207979,31.207979 0 0 0 -8.025284,0.03245 l -4.249687,-4.65871 a 36.50586,36.50586 0 0 0 -11.044083,4.732675 l 0.34453,6.122196 a 31.207979,31.207979 0 0 0 -5.6755,5.793207 l -6.168378,-0.283037 a 36.50586,36.50586 0 0 0 -4.589471,11.129568 l 4.669714,4.172293 a 31.207979,31.207979 0 0 0 0.03245,8.025283 l -4.658709,4.249686 a 36.50586,36.50586 0 0 0 4.732678,11.044085 l 6.122194,-0.34453 a 31.207979,31.207979 0 0 0 5.793208,5.6755 l -0.283578,6.168797 a 36.50586,36.50586 0 0 0 11.130108,4.589052 l 4.172292,-4.669713 a 31.207979,31.207979 0 0 0 8.025284,-0.03245 l 4.249689,4.65871 A 36.50586,36.50586 0 0 0 79.448261,90.782985 L 79.103734,84.66079 a 31.207979,31.207979 0 0 0 5.720456,-5.790931 l 6.219617,0.285623 a 36.50586,36.50586 0 0 0 4.53734,-11.09432 l -4.641733,-4.147349 a 31.207979,31.207979 0 0 0 -0.04905,-8.140248 l 4.59883,-4.195473 A 36.50586,36.50586 0 0 0 90.85357,40.524387 Z m -14.595447,6.849479 a 20.602317,20.602317 0 0 1 -3.654021,28.90629 20.602317,20.602317 0 0 1 -28.906291,-3.654021 20.602317,20.602317 0 0 1 3.654022,-28.90629 20.602317,20.602317 0 0 1 28.90629,3.654021 z"
       inkscape:label="gear" />
    <circle
       style="opacity:1;fill:none;stroke:#ffffff;stroke-width:4;stroke-linecap:round;stroke-dasharray:none;stroke-opacity:1"
       id="path9"
       cx="60"
       cy="60"
       r="52.54023"
       inkscape:label="outline" />
    <path
       d="M 190.43064,96.882797 H 178.36568 L 142.06496,41.95547 V 96.882797 H 130 V 23.223029 h 12.06496 l 36.30072,54.821494 V 23.223029 h 12.06496 z m 27.83415,-73.553935 v 46.884019 q 0,8.360807 4.33915,12.594127 4.44499,4.23332 12.27663,4.23332 7.93748,0 12.27663,-4.23332 4.44499,-4.23332 4.44499,-12.594127 V 23.328862 h 12.06496 v 46.672353 q 0,8.995805 -3.91582,15.239952 -3.91582,6.244147 -10.47747,9.313304 -6.56165,3.069157 -14.49912,3.069157 -7.93748,0 -14.49912,-3.069157 -6.45582,-3.069157 -10.2658,-9.313304 -3.80999,-6.244147 -3.80999,-15.239952 V 23.328862 Z m 57.04404,36.618218 q 0,-10.794966 4.97416,-19.367439 5.07998,-8.572473 13.65245,-13.334958 8.67831,-4.868318 18.94411,-4.868318 11.74746,0 20.8491,5.820815 9.20747,5.714982 13.33496,16.298282 h -14.49912 q -2.85749,-5.820815 -7.93748,-8.678306 -5.07998,-2.857491 -11.74746,-2.857491 -7.30248,0 -13.01746,3.280823 -5.71498,3.280823 -8.9958,9.419137 -3.17499,6.138314 -3.17499,14.287455 0,8.149141 3.17499,14.287455 3.28082,6.138314 8.9958,9.52497 5.71498,3.280823 13.01746,3.280823 6.66748,0 11.74746,-2.857491 5.07999,-2.857491 7.93748,-8.678306 h 14.49912 q -4.12749,10.5833 -13.33496,16.298282 -9.10164,5.714982 -20.8491,5.714982 -10.37163,0 -18.94411,-4.762485 -8.57247,-4.868318 -13.65245,-13.440791 -4.97416,-8.572473 -4.97416,-19.367439 z m 97.8956,27.199081 h 24.87075 v 9.736636 H 361.13946 V 23.328862 h 12.06497 z M 420.19432,33.065498 V 54.65543 h 25.39992 v 9.842469 h -25.39992 v 22.542429 h 28.57491 v 9.842469 H 408.12936 V 23.223029 h 40.63987 v 9.842469 z M 475.545,23.328862 v 46.884019 q 0,8.360807 4.33916,12.594127 4.44498,4.23332 12.27662,4.23332 7.93748,0 12.27663,-4.23332 4.44499,-4.23332 4.44499,-12.594127 V 23.328862 h 12.06496 v 46.672353 q 0,8.995805 -3.91582,15.239952 -3.91582,6.244147 -10.47747,9.313304 -6.56164,3.069157 -14.49912,3.069157 -7.93747,0 -14.49912,-3.069157 -6.45581,-3.069157 -10.2658,-9.313304 -3.80999,-6.244147 -3.80999,-15.239952 V 23.328862 Z m 85.30144,74.294766 q -7.40831,0 -13.33496,-2.539992 -5.92664,-2.645825 -9.3133,-7.40831 -3.38666,-4.762485 -3.38666,-11.112465 h 12.91163 q 0.42333,4.762485 3.70416,7.831642 3.38665,3.069157 9.41913,3.069157 6.24415,0 9.73664,-2.963324 3.49249,-3.069157 3.49249,-7.831642 0,-3.704155 -2.2225,-6.032481 -2.11666,-2.328326 -5.39748,-3.598322 -3.17499,-1.269996 -8.88997,-2.751658 -7.19664,-1.904994 -11.74746,-3.809988 -4.44499,-2.010827 -7.61998,-6.138314 -3.17499,-4.127487 -3.17499,-11.006632 0,-6.34998 3.17499,-11.112465 3.17499,-4.762485 8.88997,-7.302477 5.71498,-2.539992 13.22913,-2.539992 10.68913,0 17.46244,5.397483 6.87915,5.29165 7.61998,14.604954 h -13.33496 q -0.3175,-4.021654 -3.80999,-6.879145 -3.49249,-2.857491 -9.20747,-2.857491 -5.18582,0 -8.46664,2.645825 -3.28082,2.645825 -3.28082,7.619976 0,3.386656 2.01083,5.609149 2.11666,2.11666 5.29165,3.386656 3.17499,1.269996 8.6783,2.751658 7.30248,2.010827 11.8533,4.021654 4.65665,2.010827 7.83164,6.244147 3.28082,4.127487 3.28082,11.112465 0,5.609149 -3.06915,10.5833 -2.96333,4.974151 -8.78414,8.043308 -5.71499,2.963324 -13.54663,2.963324 z"
       id="text2"
       style="font-weight:500;font-size:105.833px;font-family:Poppins;-inkscape-font-specification:'Poppins Medium';fill:#ffffff;stroke-width:4;stroke-linecap:round"
       aria-label="NUCLEUS" />
    <path
       d="m 621.34982,60 q 0,-10.900799 4.76249,-19.473272 4.76248,-8.678306 13.01745,-13.440791 8.25498,-4.868318 18.41495,-4.868318 12.38246,0 21.1666,5.926648 8.88997,5.820815 12.91162,16.509948 h -8.6783 q -3.17499,-7.514143 -9.73664,-11.747463 -6.45581,-4.23332 -15.66328,-4.23332 -8.14914,0 -14.71079,3.809988 -6.45581,3.809988 -10.15997,11.006632 Q 628.9698,50.580863 628.9698,60 q 0,9.419137 3.70415,16.509948 3.70416,7.090811 10.15997,10.900799 6.56165,3.809988 14.71079,3.809988 9.20747,0 15.66328,-4.127487 6.56165,-4.23332 9.73664,-11.64163 h 8.6783 q -4.02165,10.5833 -12.91162,16.404115 -8.88998,5.820815 -21.1666,5.820815 -10.15997,0 -18.41495,-4.762485 Q 630.87479,88.045745 626.11231,79.473272 621.34982,70.900799 621.34982,60 Z m 118.21546,37.782381 q -10.26581,0 -18.62661,-4.762485 Q 712.57786,88.151578 707.70954,79.579105 702.94706,70.900799 702.94706,60 q 0,-10.900799 4.76248,-19.473272 4.86832,-8.678306 13.22913,-13.440791 8.3608,-4.868318 18.62661,-4.868318 10.37163,0 18.73244,4.868318 8.3608,4.762485 13.12329,13.440791 4.76248,8.572473 4.76248,19.473272 0,10.900799 -4.76248,19.579105 -4.76249,8.572473 -13.12329,13.440791 -8.36081,4.762485 -18.73244,4.762485 z m 0,-6.455813 q 8.25497,0 14.81662,-3.809988 6.56164,-3.809988 10.37163,-10.900799 3.80999,-7.196644 3.80999,-16.615781 0,-9.419137 -3.80999,-16.509948 -3.80999,-7.090811 -10.37163,-10.900799 -6.56165,-3.809988 -14.81662,-3.809988 -8.25498,0 -14.81662,3.809988 -6.56165,3.809988 -10.37164,10.900799 -3.80999,7.090811 -3.80999,16.509948 0,9.419137 3.80999,16.615781 3.80999,7.090811 10.37164,10.900799 6.56164,3.809988 14.81662,3.809988 z m 105.93884,5.714982 h -7.40831 L 797.13844,34.811746 V 97.04155 h -7.40831 V 23.064283 h 7.40831 l 40.95737,62.123971 V 23.064283 h 7.40831 z m 56.83241,-73.977267 v 6.138314 H 869.73997 V 56.82501 h 27.51658 v 6.138314 H 869.73997 V 97.04155 h -7.40831 V 23.064283 Z m 19.5791,0 V 97.04155 h -7.40831 V 23.064283 Z m 75.03562,21.589932 q -3.17499,-7.302477 -9.73664,-11.429964 -6.45581,-4.23332 -15.23995,-4.23332 -8.25497,0 -14.81662,3.809988 -6.56165,3.809988 -10.37163,10.900799 -3.80999,6.984978 -3.80999,16.298282 0,9.313304 3.80999,16.404115 3.80998,7.090811 10.37163,10.900799 6.56165,3.809988 14.81662,3.809988 7.72581,0 13.86412,-3.280823 6.24415,-3.386656 9.94831,-9.52497 3.80998,-6.244147 4.33911,-14.499121 h -31.11486 v -6.032481 h 38.94656 v 5.397483 q -0.5292,9.736636 -5.2917,17.674111 -4.76245,7.831642 -12.80576,12.382461 -7.93748,4.550819 -17.88578,4.550819 -10.2658,0 -18.62661,-4.762485 -8.3608,-4.868318 -13.22912,-13.440791 Q 935.35644,70.900799 935.35644,60 q 0,-10.900799 4.76249,-19.473272 4.86832,-8.678306 13.22912,-13.440791 8.36081,-4.868318 18.62661,-4.868318 11.8533,0 20.74327,5.926648 8.88997,5.926648 12.91167,16.509948 z"
       id="text3"
       style="font-weight:300;font-size:105.833px;font-family:Poppins;-inkscape-font-specification:'Poppins Light';fill:#ffffff;stroke-width:4;stroke-linecap:round"
       aria-label="CONFIG" />
  </g>
</svg>
