<?xml version="1.0" encoding="UTF-8" standalone="no"?>
<!-- Created with Inkscape (http://www.inkscape.org/) -->

<svg
   width="1000mm"
   height="120mm"
   viewBox="0 0 1000 120"
   version="1.1"
   id="svg1"
   sodipodi:docname="codec.svg"
   inkscape:version="1.3 (0e150ed6c4, 2023-07-21)"
   xmlns:inkscape="http://www.inkscape.org/namespaces/inkscape"
   xmlns:sodipodi="http://sodipodi.sourceforge.net/DTD/sodipodi-0.dtd"
   xmlns="http://www.w3.org/2000/svg"
   xmlns:svg="http://www.w3.org/2000/svg">
  <sodipodi:namedview
     id="namedview1"
     pagecolor="#000000"
     bordercolor="#000000"
     borderopacity="0.14509804"
     inkscape:showpageshadow="2"
     inkscape:pageopacity="0.0"
     inkscape:pagecheckerboard="true"
     inkscape:deskcolor="#d1d1d1"
     inkscape:document-units="mm"
     inkscape:zoom="0.24171952"
     inkscape:cx="2138.8426"
     inkscape:cy="18.616618"
     inkscape:window-width="1920"
     inkscape:window-height="1057"
     inkscape:window-x="1352"
     inkscape:window-y="-8"
     inkscape:window-maximized="1"
     inkscape:current-layer="layer1"
     showgrid="false">
    <inkscape:grid
       id="grid1"
       units="mm"
       originx="0"
       originy="0"
       spacingx="1"
       spacingy="1"
       empcolor="#0099e5"
       empopacity="0.30196078"
       color="#0099e5"
       opacity="0.14901961"
       empspacing="5"
       dotted="false"
       gridanglex="30"
       gridanglez="30"
       visible="false" />
  </sodipodi:namedview>
  <defs
     id="defs1">
    <inkscape:path-effect
       effect="bspline"
       id="path-effect26"
       is_visible="true"
       lpeversion="1.3"
       weight="33.333333"
       steps="2"
       helper_size="0"
       apply_no_weight="true"
       apply_with_weight="true"
       only_selected="false"
       uniform="false" />
    <inkscape:path-effect
       effect="bspline"
       id="path-effect24"
       is_visible="true"
       lpeversion="1.3"
       weight="33.333333"
       steps="2"
       helper_size="0"
       apply_no_weight="true"
       apply_with_weight="true"
       only_selected="false"
       uniform="false" />
    <inkscape:path-effect
       effect="bspline"
       id="path-effect19"
       is_visible="true"
       lpeversion="1.3"
       weight="33.333333"
       steps="2"
       helper_size="0"
       apply_no_weight="true"
       apply_with_weight="true"
       only_selected="false"
       uniform="false" />
    <inkscape:path-effect
       effect="bspline"
       id="path-effect18"
       is_visible="true"
       lpeversion="1.3"
       weight="33.333333"
       steps="2"
       helper_size="0"
       apply_no_weight="true"
       apply_with_weight="true"
       only_selected="false"
       uniform="false" />
    <inkscape:path-effect
       effect="bspline"
       id="path-effect16"
       is_visible="true"
       lpeversion="1.3"
       weight="33.333333"
       steps="2"
       helper_size="0"
       apply_no_weight="true"
       apply_with_weight="true"
       only_selected="false"
       uniform="false" />
    <inkscape:path-effect
       effect="bspline"
       id="path-effect11"
       is_visible="true"
       lpeversion="1.3"
       weight="33.333333"
       steps="2"
       helper_size="0"
       apply_no_weight="true"
       apply_with_weight="true"
       only_selected="false"
       uniform="false" />
    <inkscape:path-effect
       effect="bspline"
       id="path-effect4"
       is_visible="true"
       lpeversion="1.3"
       weight="33.333333"
       steps="2"
       helper_size="0"
       apply_no_weight="true"
       apply_with_weight="true"
       only_selected="false"
       uniform="false" />
    <inkscape:path-effect
       effect="bspline"
       id="path-effect3"
       is_visible="true"
       lpeversion="1.3"
       weight="33.333333"
       steps="2"
       helper_size="0"
       apply_no_weight="true"
       apply_with_weight="true"
       only_selected="false"
       uniform="false" />
    <inkscape:path-effect
       effect="bspline"
       id="path-effect2"
       is_visible="true"
       lpeversion="1.3"
       weight="33.333333"
       steps="2"
       helper_size="0"
       apply_no_weight="true"
       apply_with_weight="true"
       only_selected="false"
       uniform="false" />
    <inkscape:path-effect
       effect="bspline"
       id="path-effect1"
       is_visible="true"
       lpeversion="1.3"
       weight="33.333333"
       steps="2"
       helper_size="0"
       apply_no_weight="true"
       apply_with_weight="true"
       only_selected="false"
       uniform="false" />
    <inkscape:path-effect
       effect="fillet_chamfer"
       id="path-effect9"
       is_visible="true"
       lpeversion="1"
       nodesatellites_param="F,0,0,1,0,0,0,1 @ F,0,0,1,0,26.458333,0,1"
       radius="100"
       unit="px"
       method="auto"
       mode="F"
       chamfer_steps="1"
       flexible="true"
       use_knot_distance="true"
       apply_no_radius="true"
       apply_with_radius="true"
       only_selected="false"
       hide_knots="false" />
    <inkscape:path-effect
       effect="fillet_chamfer"
       id="path-effect8"
       is_visible="true"
       lpeversion="1"
       nodesatellites_param="F,0,0,1,0,0,0,1 @ F,0,0,1,0,0,0,1"
       radius="0"
       unit="px"
       method="auto"
       mode="F"
       chamfer_steps="1"
       flexible="false"
       use_knot_distance="true"
       apply_no_radius="true"
       apply_with_radius="true"
       only_selected="false"
       hide_knots="false" />
    <inkscape:path-effect
       effect="fillet_chamfer"
       id="path-effect7"
       is_visible="true"
       lpeversion="1"
       nodesatellites_param="F,0,0,1,0,0,0,1 @ F,0,0,1,0,0,0,1"
       radius="0"
       unit="px"
       method="auto"
       mode="F"
       chamfer_steps="1"
       flexible="false"
       use_knot_distance="true"
       apply_no_radius="true"
       apply_with_radius="true"
       only_selected="false"
       hide_knots="false" />
    <inkscape:path-effect
       effect="fillet_chamfer"
       id="path-effect6"
       is_visible="true"
       lpeversion="1"
       nodesatellites_param="F,0,0,1,0,0,0,1 @ F,0,0,1,0,0,0,1"
       radius="0"
       unit="px"
       method="auto"
       mode="F"
       chamfer_steps="1"
       flexible="false"
       use_knot_distance="true"
       apply_no_radius="true"
       apply_with_radius="true"
       only_selected="false"
       hide_knots="false" />
    <inkscape:path-effect
       effect="fillet_chamfer"
       id="path-effect5"
       is_visible="true"
       lpeversion="1"
       nodesatellites_param="F,0,0,1,0,0,0,1 @ F,0,0,1,0,0,0,1"
       radius="0"
       unit="px"
       method="auto"
       mode="F"
       chamfer_steps="1"
       flexible="false"
       use_knot_distance="true"
       apply_no_radius="true"
       apply_with_radius="true"
       only_selected="false"
       hide_knots="false" />
  </defs>
  <g
     inkscape:label="Layer 1"
     inkscape:groupmode="layer"
     id="layer1">
    <circle
       style="fill:#0d1117;fill-opacity:1;stroke:none;stroke-width:4;stroke-linecap:round;stroke-dasharray:none;stroke-opacity:1"
       id="circle2"
       cx="60"
       cy="60"
       r="52.54023"
       inkscape:label="background" />
    <circle
       style="opacity:1;fill:none;stroke:#ffffff;stroke-width:4;stroke-linecap:round;stroke-dasharray:none;stroke-opacity:1"
       id="path9"
       cx="60"
       cy="60"
       r="52.54023"
       inkscape:label="outline" />
    <path
       d="m 49.381412,91.64419 q 0,0.564445 -0.423333,0.987779 -0.423334,0.423334 -0.987779,0.423334 h -3.598336 q -3.245557,0 -5.362225,-0.49389 Q 36.963626,92.13808 35.764181,91.00919 34.564736,89.8803 34.070846,87.975299 33.576957,86.140853 33.576957,83.318629 V 70.900843 q 0,-1.622779 -0.211667,-2.89278 -0.211667,-1.27 -0.705556,-2.257779 -0.423333,-1.058334 -1.270001,-1.905001 -0.776111,-0.917223 -2.046112,-1.76389 v -4.092225 q 1.270001,-0.846667 2.046112,-1.693335 0.846668,-0.917222 1.270001,-1.905001 0.493889,-0.987778 0.705556,-2.257779 0.211667,-1.270001 0.211667,-2.89278 V 36.681376 q 0,-2.822224 0.493889,-4.65667 0.49389,-1.905001 1.693335,-3.033891 1.199445,-1.12889 3.245558,-1.552223 2.116668,-0.493889 5.362225,-0.493889 h 3.52778 q 0.564445,0 0.987779,0.423333 0.423334,0.423334 0.423334,0.987779 v 2.328334 q 0,0.564445 -0.423334,0.987779 -0.423334,0.423334 -0.987779,0.423334 h -3.175002 q -1.552223,0 -2.540001,0.211666 -0.917223,0.141112 -1.481668,0.705556 -0.493889,0.49389 -0.705556,1.411112 -0.141111,0.846668 -0.141111,2.25778 v 12.558897 q 0,3.739447 -1.058334,6.350004 -1.058334,2.540002 -3.951114,4.515559 2.822224,1.975557 3.880558,4.515559 1.12889,2.540001 1.12889,6.279448 v 12.417786 q 0,1.411112 0.141111,2.25778 0.211667,0.917222 0.705556,1.411112 0.564445,0.564445 1.481668,0.705556 0.987778,0.211667 2.540001,0.211667 H 47.9703 q 0.564445,0 0.987779,0.423333 0.423333,0.423334 0.423333,0.987779 V 91.64419 Z M 90.656376,62.081393 q -1.270001,0.846667 -2.116668,1.76389 -0.776112,0.846667 -1.270001,1.905001 -0.423334,0.987779 -0.635,2.257779 -0.211667,1.270001 -0.211667,2.89278 v 12.417786 q 0,2.822224 -0.49389,4.65667 -0.423333,1.905001 -1.693334,3.033891 -1.199445,1.12889 -3.316113,1.552223 -2.046113,0.49389 -5.291671,0.49389 h -3.598335 q -0.564445,0 -0.987779,-0.423334 -0.423333,-0.423334 -0.423333,-0.987779 v -2.328334 q 0,-0.564445 0.423333,-0.987779 0.423334,-0.423333 0.987779,-0.423333 h 3.245557 q 1.552224,0 2.469447,-0.211667 0.987778,-0.141111 1.481667,-0.705556 0.564445,-0.49389 0.705556,-1.411112 0.211667,-0.846668 0.211667,-2.25778 V 70.900843 q 0,-3.739447 1.058334,-6.279448 1.12889,-2.540002 3.951114,-4.515559 -2.89278,-1.975557 -3.951114,-4.515559 -1.058334,-2.610557 -1.058334,-6.350004 V 36.681376 q 0,-1.411112 -0.211667,-2.25778 -0.141111,-0.917222 -0.705556,-1.411112 -0.493889,-0.564444 -1.481667,-0.705556 -0.917223,-0.211666 -2.469447,-0.211666 h -3.175002 q -0.564445,0 -0.987778,-0.423334 -0.423334,-0.423334 -0.423334,-0.987779 v -2.328334 q 0,-0.564445 0.423334,-0.987779 0.423333,-0.423333 0.987778,-0.423333 h 3.52778 q 3.245558,0 5.291671,0.493889 2.116668,0.423333 3.316113,1.552223 1.270001,1.12889 1.693334,3.033891 0.49389,1.834446 0.49389,4.65667 v 12.558897 q 0,1.622779 0.211667,2.89278 0.211666,1.270001 0.635,2.257779 0.493889,0.987779 1.270001,1.905001 0.846667,0.846668 2.116668,1.693335 v 4.092225 z"
       id="text1"
       style="font-size:70.5556px;font-family:'Neo Sans';-inkscape-font-specification:'Neo Sans';text-align:center;text-anchor:middle;fill:#ffffff;stroke-width:4;stroke-linecap:round"
       inkscape:label="braces"
       aria-label="{ }" />
    <path
       d="M 190.43064,96.882797 H 178.36568 L 142.06496,41.95547 V 96.882797 H 130 V 23.223029 h 12.06496 l 36.30072,54.821494 V 23.223029 h 12.06496 z m 27.83415,-73.553935 v 46.884019 q 0,8.360807 4.33915,12.594127 4.44499,4.23332 12.27663,4.23332 7.93748,0 12.27663,-4.23332 4.44499,-4.23332 4.44499,-12.594127 V 23.328862 h 12.06496 v 46.672353 q 0,8.995805 -3.91582,15.239952 -3.91582,6.244147 -10.47747,9.313304 -6.56165,3.069157 -14.49912,3.069157 -7.93748,0 -14.49912,-3.069157 -6.45582,-3.069157 -10.2658,-9.313304 -3.80999,-6.244147 -3.80999,-15.239952 V 23.328862 Z m 57.04404,36.618218 q 0,-10.794966 4.97416,-19.367439 5.07998,-8.572473 13.65245,-13.334958 8.67831,-4.868318 18.94411,-4.868318 11.74746,0 20.8491,5.820815 9.20747,5.714982 13.33496,16.298282 h -14.49912 q -2.85749,-5.820815 -7.93748,-8.678306 -5.07998,-2.857491 -11.74746,-2.857491 -7.30248,0 -13.01746,3.280823 -5.71498,3.280823 -8.9958,9.419137 -3.17499,6.138314 -3.17499,14.287455 0,8.149141 3.17499,14.287455 3.28082,6.138314 8.9958,9.52497 5.71498,3.280823 13.01746,3.280823 6.66748,0 11.74746,-2.857491 5.07999,-2.857491 7.93748,-8.678306 h 14.49912 q -4.12749,10.5833 -13.33496,16.298282 -9.10164,5.714982 -20.8491,5.714982 -10.37163,0 -18.94411,-4.762485 -8.57247,-4.868318 -13.65245,-13.440791 -4.97416,-8.572473 -4.97416,-19.367439 z m 97.8956,27.199081 h 24.87075 v 9.736636 H 361.13946 V 23.328862 h 12.06497 z M 420.19432,33.065498 V 54.65543 h 25.39992 v 9.842469 h -25.39992 v 22.542429 h 28.57491 v 9.842469 H 408.12936 V 23.223029 h 40.63987 v 9.842469 z M 475.545,23.328862 v 46.884019 q 0,8.360807 4.33916,12.594127 4.44498,4.23332 12.27662,4.23332 7.93748,0 12.27663,-4.23332 4.44499,-4.23332 4.44499,-12.594127 V 23.328862 h 12.06496 v 46.672353 q 0,8.995805 -3.91582,15.239952 -3.91582,6.244147 -10.47747,9.313304 -6.56164,3.069157 -14.49912,3.069157 -7.93747,0 -14.49912,-3.069157 -6.45581,-3.069157 -10.2658,-9.313304 -3.80999,-6.244147 -3.80999,-15.239952 V 23.328862 Z m 85.30144,74.294766 q -7.40831,0 -13.33496,-2.539992 -5.92664,-2.645825 -9.3133,-7.40831 -3.38666,-4.762485 -3.38666,-11.112465 h 12.91163 q 0.42333,4.762485 3.70416,7.831642 3.38665,3.069157 9.41913,3.069157 6.24415,0 9.73664,-2.963324 3.49249,-3.069157 3.49249,-7.831642 0,-3.704155 -2.2225,-6.032481 -2.11666,-2.328326 -5.39748,-3.598322 -3.17499,-1.269996 -8.88997,-2.751658 -7.19664,-1.904994 -11.74746,-3.809988 -4.44499,-2.010827 -7.61998,-6.138314 -3.17499,-4.127487 -3.17499,-11.006632 0,-6.34998 3.17499,-11.112465 3.17499,-4.762485 8.88997,-7.302477 5.71498,-2.539992 13.22913,-2.539992 10.68913,0 17.46244,5.397483 6.87915,5.29165 7.61998,14.604954 h -13.33496 q -0.3175,-4.021654 -3.80999,-6.879145 -3.49249,-2.857491 -9.20747,-2.857491 -5.18582,0 -8.46664,2.645825 -3.28082,2.645825 -3.28082,7.619976 0,3.386656 2.01083,5.609149 2.11666,2.11666 5.29165,3.386656 3.17499,1.269996 8.6783,2.751658 7.30248,2.010827 11.8533,4.021654 4.65665,2.010827 7.83164,6.244147 3.28082,4.127487 3.28082,11.112465 0,5.609149 -3.06915,10.5833 -2.96333,4.974151 -8.78414,8.043308 -5.71499,2.963324 -13.54663,2.963324 z"
       id="text2"
       style="font-weight:500;font-size:105.833px;font-family:Poppins;-inkscape-font-specification:'Poppins Medium';fill:#ffffff;stroke-width:4;stroke-linecap:round"
       aria-label="NUCLEUS" />
    <path
       d="m 621.34982,60 q 0,-10.900799 4.76249,-19.473272 4.76248,-8.678306 13.01745,-13.440791 8.25498,-4.868318 18.41495,-4.868318 12.38246,0 21.1666,5.926648 8.88997,5.820815 12.91162,16.509948 h -8.6783 q -3.17499,-7.514143 -9.73664,-11.747463 -6.45581,-4.23332 -15.66328,-4.23332 -8.14914,0 -14.71079,3.809988 -6.45581,3.809988 -10.15997,11.006632 Q 628.9698,50.580863 628.9698,60 q 0,9.419137 3.70415,16.509948 3.70416,7.090811 10.15997,10.900799 6.56165,3.809988 14.71079,3.809988 9.20747,0 15.66328,-4.127487 6.56165,-4.23332 9.73664,-11.64163 h 8.6783 q -4.02165,10.5833 -12.91162,16.404115 -8.88998,5.820815 -21.1666,5.820815 -10.15997,0 -18.41495,-4.762485 Q 630.87479,88.045745 626.11231,79.473272 621.34982,70.900799 621.34982,60 Z m 118.21546,37.782381 q -10.26581,0 -18.62661,-4.762485 Q 712.57786,88.151578 707.70954,79.579105 702.94706,70.900799 702.94706,60 q 0,-10.900799 4.76248,-19.473272 4.86832,-8.678306 13.22913,-13.440791 8.3608,-4.868318 18.62661,-4.868318 10.37163,0 18.73244,4.868318 8.3608,4.762485 13.12329,13.440791 4.76248,8.572473 4.76248,19.473272 0,10.900799 -4.76248,19.579105 -4.76249,8.572473 -13.12329,13.440791 -8.36081,4.762485 -18.73244,4.762485 z m 0,-6.455813 q 8.25497,0 14.81662,-3.809988 6.56164,-3.809988 10.37163,-10.900799 3.80999,-7.196644 3.80999,-16.615781 0,-9.419137 -3.80999,-16.509948 -3.80999,-7.090811 -10.37163,-10.900799 -6.56165,-3.809988 -14.81662,-3.809988 -8.25498,0 -14.81662,3.809988 -6.56165,3.809988 -10.37164,10.900799 -3.80999,7.090811 -3.80999,16.509948 0,9.419137 3.80999,16.615781 3.80999,7.090811 10.37164,10.900799 6.56164,3.809988 14.81662,3.809988 z m 72.07228,-68.262285 q 12.27663,0 21.06077,4.444986 8.78414,4.444986 13.44079,12.805793 4.65665,8.360807 4.65665,19.896604 0,11.429964 -4.65665,19.790771 -4.65665,8.254974 -13.44079,12.69996 -8.78414,4.339153 -21.06077,4.339153 H 789.73013 V 23.064283 Z m 0,67.838953 q 15.45162,0 23.49493,-8.043308 8.14914,-8.149141 8.14914,-22.648262 0,-14.604954 -8.14914,-22.754095 -8.04331,-8.254974 -23.49493,-8.254974 h -14.49912 v 61.700639 z m 60.21891,-61.806472 v 27.622413 h 28.04575 v 6.138314 h -28.04575 v 28.045745 h 31.22074 v 6.138314 h -38.62905 v -74.0831 h 38.62905 v 6.138314 z M 914.29553,60 q 0,-10.900799 4.76248,-19.473272 4.76249,-8.678306 13.01746,-13.440791 8.25498,-4.868318 18.41495,-4.868318 12.38246,0 21.1666,5.926648 8.88997,5.820815 12.91162,16.509948 h -8.6783 q -3.17499,-7.514143 -9.73664,-11.747463 -6.45581,-4.23332 -15.66328,-4.23332 -8.14915,0 -14.71079,3.809988 -6.45581,3.809988 -10.15997,11.006632 -3.70415,7.090811 -3.70415,16.509948 0,9.419137 3.70415,16.509948 3.70416,7.090811 10.15997,10.900799 6.56164,3.809988 14.71079,3.809988 9.20747,0 15.66328,-4.127487 6.56165,-4.23332 9.73664,-11.64163 h 8.6783 q -4.02165,10.5833 -12.91162,16.404115 -8.88998,5.820815 -21.1666,5.820815 -10.15997,0 -18.41495,-4.762485 Q 923.8205,88.045745 919.05801,79.473272 914.29553,70.900799 914.29553,60 Z"
       id="text3"
       style="font-weight:300;font-size:105.833px;font-family:Poppins;-inkscape-font-specification:'Poppins Light';fill:#ffffff;stroke-width:4;stroke-linecap:round"
       aria-label="CODEC" />
  </g>
</svg>
