<?xml version="1.0" encoding="UTF-8" standalone="no"?>
<!-- Created with Inkscape (http://www.inkscape.org/) -->

<svg
   width="120mm"
   height="120mm"
   viewBox="0 0 120 120"
   version="1.1"
   id="svg1"
   sodipodi:docname="codec.svg"
   inkscape:version="1.3 (0e150ed6c4, 2023-07-21)"
   xmlns:inkscape="http://www.inkscape.org/namespaces/inkscape"
   xmlns:sodipodi="http://sodipodi.sourceforge.net/DTD/sodipodi-0.dtd"
   xmlns="http://www.w3.org/2000/svg"
   xmlns:svg="http://www.w3.org/2000/svg">
  <sodipodi:namedview
     id="namedview1"
     pagecolor="#000000"
     bordercolor="#000000"
     borderopacity="0.14509804"
     inkscape:showpageshadow="2"
     inkscape:pageopacity="0.0"
     inkscape:pagecheckerboard="true"
     inkscape:deskcolor="#d1d1d1"
     inkscape:document-units="mm"
     inkscape:zoom="1.3673721"
     inkscape:cx="321.78512"
     inkscape:cy="157.60158"
     inkscape:window-width="1920"
     inkscape:window-height="1057"
     inkscape:window-x="1352"
     inkscape:window-y="-8"
     inkscape:window-maximized="1"
     inkscape:current-layer="layer1"
     showgrid="false">
    <inkscape:grid
       id="grid1"
       units="mm"
       originx="0"
       originy="0"
       spacingx="1"
       spacingy="1"
       empcolor="#0099e5"
       empopacity="0.30196078"
       color="#0099e5"
       opacity="0.14901961"
       empspacing="5"
       dotted="false"
       gridanglex="30"
       gridanglez="30"
       visible="false" />
  </sodipodi:namedview>
  <defs
     id="defs1">
    <inkscape:path-effect
       effect="bspline"
       id="path-effect26"
       is_visible="true"
       lpeversion="1.3"
       weight="33.333333"
       steps="2"
       helper_size="0"
       apply_no_weight="true"
       apply_with_weight="true"
       only_selected="false"
       uniform="false" />
    <inkscape:path-effect
       effect="bspline"
       id="path-effect24"
       is_visible="true"
       lpeversion="1.3"
       weight="33.333333"
       steps="2"
       helper_size="0"
       apply_no_weight="true"
       apply_with_weight="true"
       only_selected="false"
       uniform="false" />
    <inkscape:path-effect
       effect="bspline"
       id="path-effect19"
       is_visible="true"
       lpeversion="1.3"
       weight="33.333333"
       steps="2"
       helper_size="0"
       apply_no_weight="true"
       apply_with_weight="true"
       only_selected="false"
       uniform="false" />
    <inkscape:path-effect
       effect="bspline"
       id="path-effect18"
       is_visible="true"
       lpeversion="1.3"
       weight="33.333333"
       steps="2"
       helper_size="0"
       apply_no_weight="true"
       apply_with_weight="true"
       only_selected="false"
       uniform="false" />
    <inkscape:path-effect
       effect="bspline"
       id="path-effect16"
       is_visible="true"
       lpeversion="1.3"
       weight="33.333333"
       steps="2"
       helper_size="0"
       apply_no_weight="true"
       apply_with_weight="true"
       only_selected="false"
       uniform="false" />
    <inkscape:path-effect
       effect="bspline"
       id="path-effect11"
       is_visible="true"
       lpeversion="1.3"
       weight="33.333333"
       steps="2"
       helper_size="0"
       apply_no_weight="true"
       apply_with_weight="true"
       only_selected="false"
       uniform="false" />
    <inkscape:path-effect
       effect="bspline"
       id="path-effect4"
       is_visible="true"
       lpeversion="1.3"
       weight="33.333333"
       steps="2"
       helper_size="0"
       apply_no_weight="true"
       apply_with_weight="true"
       only_selected="false"
       uniform="false" />
    <inkscape:path-effect
       effect="bspline"
       id="path-effect3"
       is_visible="true"
       lpeversion="1.3"
       weight="33.333333"
       steps="2"
       helper_size="0"
       apply_no_weight="true"
       apply_with_weight="true"
       only_selected="false"
       uniform="false" />
    <inkscape:path-effect
       effect="bspline"
       id="path-effect2"
       is_visible="true"
       lpeversion="1.3"
       weight="33.333333"
       steps="2"
       helper_size="0"
       apply_no_weight="true"
       apply_with_weight="true"
       only_selected="false"
       uniform="false" />
    <inkscape:path-effect
       effect="bspline"
       id="path-effect1"
       is_visible="true"
       lpeversion="1.3"
       weight="33.333333"
       steps="2"
       helper_size="0"
       apply_no_weight="true"
       apply_with_weight="true"
       only_selected="false"
       uniform="false" />
    <inkscape:path-effect
       effect="fillet_chamfer"
       id="path-effect9"
       is_visible="true"
       lpeversion="1"
       nodesatellites_param="F,0,0,1,0,0,0,1 @ F,0,0,1,0,26.458333,0,1"
       radius="100"
       unit="px"
       method="auto"
       mode="F"
       chamfer_steps="1"
       flexible="true"
       use_knot_distance="true"
       apply_no_radius="true"
       apply_with_radius="true"
       only_selected="false"
       hide_knots="false" />
    <inkscape:path-effect
       effect="fillet_chamfer"
       id="path-effect8"
       is_visible="true"
       lpeversion="1"
       nodesatellites_param="F,0,0,1,0,0,0,1 @ F,0,0,1,0,0,0,1"
       radius="0"
       unit="px"
       method="auto"
       mode="F"
       chamfer_steps="1"
       flexible="false"
       use_knot_distance="true"
       apply_no_radius="true"
       apply_with_radius="true"
       only_selected="false"
       hide_knots="false" />
    <inkscape:path-effect
       effect="fillet_chamfer"
       id="path-effect7"
       is_visible="true"
       lpeversion="1"
       nodesatellites_param="F,0,0,1,0,0,0,1 @ F,0,0,1,0,0,0,1"
       radius="0"
       unit="px"
       method="auto"
       mode="F"
       chamfer_steps="1"
       flexible="false"
       use_knot_distance="true"
       apply_no_radius="true"
       apply_with_radius="true"
       only_selected="false"
       hide_knots="false" />
    <inkscape:path-effect
       effect="fillet_chamfer"
       id="path-effect6"
       is_visible="true"
       lpeversion="1"
       nodesatellites_param="F,0,0,1,0,0,0,1 @ F,0,0,1,0,0,0,1"
       radius="0"
       unit="px"
       method="auto"
       mode="F"
       chamfer_steps="1"
       flexible="false"
       use_knot_distance="true"
       apply_no_radius="true"
       apply_with_radius="true"
       only_selected="false"
       hide_knots="false" />
    <inkscape:path-effect
       effect="fillet_chamfer"
       id="path-effect5"
       is_visible="true"
       lpeversion="1"
       nodesatellites_param="F,0,0,1,0,0,0,1 @ F,0,0,1,0,0,0,1"
       radius="0"
       unit="px"
       method="auto"
       mode="F"
       chamfer_steps="1"
       flexible="false"
       use_knot_distance="true"
       apply_no_radius="true"
       apply_with_radius="true"
       only_selected="false"
       hide_knots="false" />
  </defs>
  <g
     inkscape:label="Layer 1"
     inkscape:groupmode="layer"
     id="layer1">
    <circle
       style="fill:#0d1117;fill-opacity:1;stroke:none;stroke-width:4;stroke-linecap:round;stroke-dasharray:none;stroke-opacity:1"
       id="circle2"
       cx="60"
       cy="60"
       r="52.54023"
       inkscape:label="background" />
    <circle
       style="opacity:1;fill:none;stroke:#ffffff;stroke-width:4;stroke-linecap:round;stroke-dasharray:none;stroke-opacity:1"
       id="path9"
       cx="60"
       cy="60"
       r="52.54023"
       inkscape:label="outline" />
    <path
       d="m 49.381412,91.64419 q 0,0.564445 -0.423333,0.987779 -0.423334,0.423334 -0.987779,0.423334 h -3.598336 q -3.245557,0 -5.362225,-0.49389 Q 36.963626,92.13808 35.764181,91.00919 34.564736,89.8803 34.070846,87.975299 33.576957,86.140853 33.576957,83.318629 V 70.900843 q 0,-1.622779 -0.211667,-2.89278 -0.211667,-1.27 -0.705556,-2.257779 -0.423333,-1.058334 -1.270001,-1.905001 -0.776111,-0.917223 -2.046112,-1.76389 v -4.092225 q 1.270001,-0.846667 2.046112,-1.693335 0.846668,-0.917222 1.270001,-1.905001 0.493889,-0.987778 0.705556,-2.257779 0.211667,-1.270001 0.211667,-2.89278 V 36.681376 q 0,-2.822224 0.493889,-4.65667 0.49389,-1.905001 1.693335,-3.033891 1.199445,-1.12889 3.245558,-1.552223 2.116668,-0.493889 5.362225,-0.493889 h 3.52778 q 0.564445,0 0.987779,0.423333 0.423334,0.423334 0.423334,0.987779 v 2.328334 q 0,0.564445 -0.423334,0.987779 -0.423334,0.423334 -0.987779,0.423334 h -3.175002 q -1.552223,0 -2.540001,0.211666 -0.917223,0.141112 -1.481668,0.705556 -0.493889,0.49389 -0.705556,1.411112 -0.141111,0.846668 -0.141111,2.25778 v 12.558897 q 0,3.739447 -1.058334,6.350004 -1.058334,2.540002 -3.951114,4.515559 2.822224,1.975557 3.880558,4.515559 1.12889,2.540001 1.12889,6.279448 v 12.417786 q 0,1.411112 0.141111,2.25778 0.211667,0.917222 0.705556,1.411112 0.564445,0.564445 1.481668,0.705556 0.987778,0.211667 2.540001,0.211667 H 47.9703 q 0.564445,0 0.987779,0.423333 0.423333,0.423334 0.423333,0.987779 V 91.64419 Z M 90.656376,62.081393 q -1.270001,0.846667 -2.116668,1.76389 -0.776112,0.846667 -1.270001,1.905001 -0.423334,0.987779 -0.635,2.257779 -0.211667,1.270001 -0.211667,2.89278 v 12.417786 q 0,2.822224 -0.49389,4.65667 -0.423333,1.905001 -1.693334,3.033891 -1.199445,1.12889 -3.316113,1.552223 -2.046113,0.49389 -5.291671,0.49389 h -3.598335 q -0.564445,0 -0.987779,-0.423334 -0.423333,-0.423334 -0.423333,-0.987779 v -2.328334 q 0,-0.564445 0.423333,-0.987779 0.423334,-0.423333 0.987779,-0.423333 h 3.245557 q 1.552224,0 2.469447,-0.211667 0.987778,-0.141111 1.481667,-0.705556 0.564445,-0.49389 0.705556,-1.411112 0.211667,-0.846668 0.211667,-2.25778 V 70.900843 q 0,-3.739447 1.058334,-6.279448 1.12889,-2.540002 3.951114,-4.515559 -2.89278,-1.975557 -3.951114,-4.515559 -1.058334,-2.610557 -1.058334,-6.350004 V 36.681376 q 0,-1.411112 -0.211667,-2.25778 -0.141111,-0.917222 -0.705556,-1.411112 -0.493889,-0.564444 -1.481667,-0.705556 -0.917223,-0.211666 -2.469447,-0.211666 h -3.175002 q -0.564445,0 -0.987778,-0.423334 -0.423334,-0.423334 -0.423334,-0.987779 v -2.328334 q 0,-0.564445 0.423334,-0.987779 0.423333,-0.423333 0.987778,-0.423333 h 3.52778 q 3.245558,0 5.291671,0.493889 2.116668,0.423333 3.316113,1.552223 1.270001,1.12889 1.693334,3.033891 0.49389,1.834446 0.49389,4.65667 v 12.558897 q 0,1.622779 0.211667,2.89278 0.211666,1.270001 0.635,2.257779 0.493889,0.987779 1.270001,1.905001 0.846667,0.846668 2.116668,1.693335 v 4.092225 z"
       id="text1"
       style="font-size:70.5556px;font-family:'Neo Sans';-inkscape-font-specification:'Neo Sans';text-align:center;text-anchor:middle;fill:#ffffff;stroke-width:4;stroke-linecap:round"
       inkscape:label="braces"
       aria-label="{ }" />
  </g>
</svg>
